<svg xmlns="http://www.w3.org/2000/svg" viewBox="0 0 32 32" fill="none">
  <!-- EZ AI Pipeline - Favicon with node-based EZ -->

  <!-- Background -->
  <rect width="32" height="32" rx="6" fill="#F4C430"/>

  <!-- E letter -->
  <g id="E">
    <line x1="6" y1="8" x2="6" y2="24" stroke="#0A0A0A" stroke-width="2" stroke-linecap="round"/>
    <line x1="6" y1="8" x2="13" y2="8" stroke="#0A0A0A" stroke-width="2" stroke-linecap="round"/>
    <line x1="6" y1="16" x2="11" y2="16" stroke="#0A0A0A" stroke-width="2" stroke-linecap="round"/>
    <line x1="6" y1="24" x2="13" y2="24" stroke="#0A0A0A" stroke-width="2" stroke-linecap="round"/>
    <circle cx="6" cy="8" r="2.5" fill="#0A0A0A"/>
    <circle cx="13" cy="8" r="2.5" fill="#0A0A0A"/>
    <circle cx="6" cy="16" r="2.5" fill="#0A0A0A"/>
    <circle cx="11" cy="16" r="2.5" fill="#0A0A0A"/>
    <circle cx="6" cy="24" r="2.5" fill="#0A0A0A"/>
    <circle cx="13" cy="24" r="2.5" fill="#0A0A0A"/>
  </g>

  <!-- Z letter -->
  <g id="Z">
    <line x1="18" y1="8" x2="26" y2="8" stroke="#0A0A0A" stroke-width="2" stroke-linecap="round"/>
    <line x1="26" y1="8" x2="18" y2="24" stroke="#0A0A0A" stroke-width="2" stroke-linecap="round"/>
    <line x1="18" y1="24" x2="26" y2="24" stroke="#0A0A0A" stroke-width="2" stroke-linecap="round"/>
    <circle cx="18" cy="8" r="2.5" fill="#0A0A0A"/>
    <circle cx="26" cy="8" r="2.5" fill="#0A0A0A"/>
    <circle cx="18" cy="24" r="2.5" fill="#0A0A0A"/>
    <circle cx="26" cy="24" r="2.5" fill="#0A0A0A"/>
  </g>
</svg>
